
<svg
  version="1.0"
  xmlns="http://www.w3.org/2000/svg"
  xmlns:xlink="http://www.w3.org/1999/xlink"
  width="2400"
  height="1800"
>
  
  <rect
    x="0"
    y="0"
    width="100%"
    height="100%"
    fill="#feffff"
    fill-opacity="1"
  ></rect>
  <svg
    version="1.0"
    xmlns="http://www.w3.org/2000/svg"
    xmlns:xlink="http://www.w3.org/1999/xlink"
    x="0"
    y="0"
    width="2400"
    height="1800"
    viewBox="0 0 340.000000 250.000000"
    preserveAspectRatio="xMidYMid meet"
    color-interpolation-filters="sRGB"
  >
    <defs><linearGradient id="92" x1="0%" y1="0%" x2="100%" y2="0%"><stop offset="0%" stop-color="#fa71cd"/> <stop offset="100%" stop-color="#9b59b6"/></linearGradient><linearGradient id="93" x1="0%" y1="0%" x2="100%" y2="0%"><stop offset="0%" stop-color="#f9d423"/> <stop offset="100%" stop-color="#f83600"/></linearGradient><linearGradient id="94" x1="0%" y1="0%" x2="100%" y2="0%"><stop offset="0%" stop-color="#0064d2"/> <stop offset="100%" stop-color="#1cb0f6"/></linearGradient><linearGradient id="95" x1="0%" y1="0%" x2="100%" y2="0%"><stop offset="0%" stop-color="#f00978"/> <stop offset="100%" stop-color="#3f51b1"/></linearGradient><linearGradient id="96" x1="0%" y1="0%" x2="100%" y2="0%"><stop offset="0%" stop-color="#7873f5"/> <stop offset="100%" stop-color="#ec77ab"/></linearGradient><linearGradient id="97" x1="0%" y1="0%" x2="100%" y2="0%"><stop offset="0%" stop-color="#f9d423"/> <stop offset="100%" stop-color="#e14fad"/></linearGradient><linearGradient id="98" x1="0%" y1="0%" x2="100%" y2="0%"><stop offset="0%" stop-color="#009efd"/> <stop offset="100%" stop-color="#2af598"/></linearGradient><linearGradient id="99" x1="0%" y1="0%" x2="100%" y2="0%"><stop offset="0%" stop-color="#ffcc00"/> <stop offset="100%" stop-color="#00b140"/></linearGradient><linearGradient id="100" x1="0%" y1="0%" x2="100%" y2="0%"><stop offset="0%" stop-color="#d51007"/> <stop offset="100%" stop-color="#ff8177"/></linearGradient><linearGradient id="102" x1="0%" y1="0%" x2="100%" y2="0%"><stop offset="0%" stop-color="#a2b6df"/> <stop offset="100%" stop-color="#0c3483"/></linearGradient><linearGradient id="103" x1="0%" y1="0%" x2="100%" y2="0%"><stop offset="0%" stop-color="#7ac5d8"/> <stop offset="100%" stop-color="#eea2a2"/></linearGradient><linearGradient id="104" x1="0%" y1="0%" x2="100%" y2="0%"><stop offset="0%" stop-color="#00ecbc"/> <stop offset="100%" stop-color="#007adf"/></linearGradient><linearGradient id="105" x1="0%" y1="0%" x2="100%" y2="0%"><stop offset="0%" stop-color="#b88746"/> <stop offset="100%" stop-color="#fdf5a6"/></linearGradient></defs> <g fill="#333" class="iconlinesvg-g iconlinesvg" transform="translate(82.125,102.93212127685547)"><g class="tp-name"><g transform="translate(0, 0.798474868450711)"><g><g class="imagesvg"><g><rect fill="#333" fill-opacity="0" stroke-width="2" x="0" y="0" width="25.203035004899665" height="42.543948353983225" class="image-rect"/> <svg x="0" y="0" width="25.203035004899665" height="42.543948353983225" filtersec="colorsb7464491291" class="image-svg-svg primary" style="overflow: visible;"><svg xmlns="http://www.w3.org/2000/svg" viewBox="-0.0027697046753019094 -0.0019038516329601407 14.556482315063477 24.571903228759766"><path d="M13.83 14A6.48 6.48 0 0 0 12 11.82a8.93 8.93 0 0 0-2.35-1.28l-2.4-.88c-.25-.08-.56-.2-.92-.35a4.84 4.84 0 0 1-1-.58 3.1 3.1 0 0 1-.85-.91 2.58 2.58 0 0 1-.35-1.42 3.16 3.16 0 0 1 .2-1.09 3.52 3.52 0 0 1 .61-1.06 3.32 3.32 0 0 1 1-.78 3 3 0 0 1 1.36-.3 4.19 4.19 0 0 1 1.11.16 2.8 2.8 0 0 1 1.08.56 3 3 0 0 1 .82 1.05 3.82 3.82 0 0 1 .32 1.65h3.45a7 7 0 0 0-.51-2.72 6.18 6.18 0 0 0-1.41-2.08A6 6 0 0 0 10 .46 7.73 7.73 0 0 0 7.29 0a6.45 6.45 0 0 0-2.92.62A6.87 6.87 0 0 0 2.3 2.19a6.39 6.39 0 0 0-1.23 2.08 6.45 6.45 0 0 0-.4 2.16 7.89 7.89 0 0 0 .39 2.45 4.63 4.63 0 0 0 1.21 2c.28.26.55.49.8.69a6 6 0 0 0 .93.6 13.65 13.65 0 0 0 1.33.6c.52.21 1.17.47 2 .77l1.24.46a5.21 5.21 0 0 1 1.23.67 3.28 3.28 0 0 1 .93 1.06 3.2 3.2 0 0 1 .37 1.63h3.45a7.13 7.13 0 0 0-.72-3.36z" fill="#ed6c00"/><path d="M5.21 20.84a3.85 3.85 0 0 1-1.15-1.28 4.55 4.55 0 0 1-.49-1.44 7.11 7.11 0 0 1-.12-1H0a7.62 7.62 0 0 0 .69 3.38 7.25 7.25 0 0 0 1.74 2.32 6.71 6.71 0 0 0 2.35 1.33 8.15 8.15 0 0 0 2.51.42V21.4a3.49 3.49 0 0 1-2.08-.56z" fill="#e6002d"/></svg></svg> </g></g></g></g><g transform="translate(29, 0)"><g fill="#333" transform="scale(1)"><path d="M4.02-24.51L8.32-24.51L8.32 0L4.02 0L4.02-24.51ZM9.29-32.21L9.29-32.21Q9.29-31.58 9.04-31.04Q8.78-30.49 8.36-30.07Q7.94-29.65 7.38-29.40Q6.82-29.16 6.20-29.16L6.20-29.16Q5.57-29.16 5.02-29.40Q4.48-29.65 4.05-30.07Q3.63-30.49 3.39-31.04Q3.15-31.58 3.15-32.21L3.15-32.21Q3.15-32.84 3.39-33.41Q3.63-33.98 4.05-34.40Q4.48-34.82 5.02-35.07Q5.57-35.31 6.20-35.31L6.20-35.31Q6.82-35.31 7.38-35.07Q7.94-34.82 8.36-34.40Q8.78-33.98 9.04-33.41Q9.29-32.84 9.29-32.21Z" transform="translate(-3.146006991126647, 35.307878461952136)"/></g></g><g transform="translate(39, 0)"><g fill="#333" transform="scale(1)"><path d="M10.96 0.39L10.96 0.39Q8.06 0.39 6.50-1.23Q4.94-2.86 4.94-5.90L4.94-5.90L4.94-20.91L1.98-20.91Q1.60-20.91 1.33-21.14Q1.06-21.37 1.06-21.85L1.06-21.85L1.06-23.57L5.08-24.08L6.07-31.65Q6.12-32.02 6.39-32.25Q6.66-32.48 7.07-32.48L7.07-32.48L9.24-32.48L9.24-24.03L16.26-24.03L16.26-20.91L9.24-20.91L9.24-6.20Q9.24-4.65 9.99-3.90Q10.74-3.15 11.93-3.15L11.93-3.15Q12.61-3.15 13.10-3.33Q13.60-3.51 13.96-3.73Q14.33-3.94 14.58-4.13Q14.83-4.31 15.03-4.31L15.03-4.31Q15.37-4.31 15.63-3.90L15.63-3.90L16.89-1.84Q15.78-0.80 14.21-0.21Q12.63 0.39 10.96 0.39Z" transform="translate(-1.0648023662274806, 35.307878461952136)"/></g></g><g transform="translate(58, 0)"><g fill="#333" transform="scale(1)"><path d="M13.24-24.90L13.24-24.90Q15.44-24.90 17.30-24.16Q19.17-23.43 20.52-22.03Q21.88-20.64 22.64-18.60Q23.40-16.55 23.40-13.94L23.40-13.94Q23.40-12.92 23.18-12.58Q22.97-12.25 22.36-12.25L22.36-12.25L6.05-12.25Q6.10-9.92 6.68-8.20Q7.26-6.49 8.28-5.34Q9.29-4.19 10.70-3.62Q12.10-3.05 13.84-3.05L13.84-3.05Q15.46-3.05 16.64-3.42Q17.81-3.80 18.66-4.24Q19.51-4.67 20.07-5.05Q20.64-5.42 21.05-5.42L21.05-5.42Q21.59-5.42 21.88-5.01L21.88-5.01L23.09-3.44Q22.29-2.47 21.18-1.75Q20.06-1.04 18.79-0.58Q17.52-0.12 16.17 0.11Q14.81 0.34 13.48 0.34L13.48 0.34Q10.94 0.34 8.80-0.52Q6.66-1.38 5.09-3.04Q3.53-4.69 2.66-7.14Q1.79-9.58 1.79-12.75L1.79-12.75Q1.79-15.32 2.58-17.55Q3.36-19.77 4.84-21.40Q6.32-23.04 8.45-23.97Q10.58-24.90 13.24-24.90ZM13.33-21.73L13.33-21.73Q10.21-21.73 8.42-19.93Q6.63-18.13 6.20-14.93L6.20-14.93L19.53-14.93Q19.53-16.43 19.12-17.68Q18.71-18.92 17.91-19.83Q17.11-20.74 15.96-21.24Q14.81-21.73 13.33-21.73Z" transform="translate(-1.7908039795643993, 35.307878461952136)"/></g></g><g transform="translate(83, 0)"><g fill="#333" transform="scale(1)"><path d="M4.21-34.68L25.58-34.68L25.58-30.86L8.93-30.86L8.93-18.73L23.16-18.73L23.16-14.91L8.93-14.91L8.93 0L4.21 0L4.21-34.68Z" transform="translate(-4.210809357354128, 35.307878461952136)"/></g></g><g transform="translate(108, 0)"><g fill="#333" transform="scale(1)"><path d="M13.46-24.90L13.46-24.90Q16.14-24.90 18.31-24.01Q20.47-23.11 21.99-21.47Q23.50-19.82 24.31-17.48Q25.12-15.15 25.12-12.27L25.12-12.27Q25.12-9.37 24.31-7.04Q23.50-4.72 21.99-3.07Q20.47-1.43 18.31-0.54Q16.14 0.34 13.46 0.34L13.46 0.34Q10.77 0.34 8.60-0.54Q6.44-1.43 4.91-3.07Q3.39-4.72 2.57-7.04Q1.74-9.37 1.74-12.27L1.74-12.27Q1.74-15.15 2.57-17.48Q3.39-19.82 4.91-21.47Q6.44-23.11 8.60-24.01Q10.77-24.90 13.46-24.90ZM13.46-3.03L13.46-3.03Q17.09-3.03 18.88-5.46Q20.67-7.89 20.67-12.25L20.67-12.25Q20.67-16.63 18.88-19.07Q17.09-21.51 13.46-21.51L13.46-21.51Q11.62-21.51 10.26-20.88Q8.91-20.26 8.00-19.07Q7.09-17.88 6.64-16.15Q6.20-14.42 6.20-12.25L6.20-12.25Q6.20-10.07 6.64-8.35Q7.09-6.63 8.00-5.46Q8.91-4.28 10.26-3.65Q11.62-3.03 13.46-3.03Z" transform="translate(-1.7424038720086041, 35.307878461952136)"/></g></g><g transform="translate(135, 0)"><g fill="#333" transform="scale(1)"><path d="M7.84 0L3.53 0L3.53-24.51L6.00-24.51Q6.70-24.51 6.97-24.25Q7.24-23.98 7.33-23.33L7.33-23.33L7.62-19.51Q8.88-22.07 10.73-23.51Q12.58-24.95 15.08-24.95L15.08-24.95Q16.09-24.95 16.92-24.72Q17.74-24.49 18.44-24.08L18.44-24.08L17.88-20.86Q17.71-20.26 17.13-20.26L17.13-20.26Q16.79-20.26 16.09-20.49Q15.39-20.72 14.13-20.72L14.13-20.72Q11.88-20.72 10.37-19.41Q8.86-18.10 7.84-15.61L7.84-15.61L7.84 0Z" transform="translate(-3.5332078515730037, 35.307878461952136)"/></g></g><g transform="translate(153, 0)"><g fill="#333" transform="scale(1)"><path d="M11.79-24.93L11.79-24.93Q13.38-24.93 14.77-24.58Q16.17-24.22 17.30-23.55L17.30-23.55L23.96-23.55L23.96-21.95Q23.96-21.15 22.94-20.93L22.94-20.93L20.16-20.55Q20.98-18.97 20.98-17.04L20.98-17.04Q20.98-15.25 20.29-13.78Q19.60-12.32 18.38-11.28Q17.16-10.24 15.48-9.68Q13.79-9.12 11.79-9.12L11.79-9.12Q10.07-9.12 8.54-9.53L8.54-9.53Q7.77-9.05 7.37-8.49Q6.97-7.94 6.97-7.41L6.97-7.41Q6.97-6.53 7.67-6.09Q8.37-5.64 9.53-5.45Q10.70-5.25 12.17-5.20Q13.65-5.15 15.19-5.05Q16.72-4.94 18.20-4.67Q19.67-4.40 20.84-3.80Q22.00-3.19 22.70-2.13Q23.40-1.06 23.40 0.63L23.40 0.63Q23.40 2.20 22.61 3.68Q21.83 5.15 20.35 6.30Q18.88 7.45 16.75 8.14Q14.62 8.83 11.93 8.83L11.93 8.83Q9.24 8.83 7.22 8.30Q5.20 7.77 3.87 6.87Q2.54 5.98 1.88 4.80Q1.21 3.63 1.21 2.35L1.21 2.35Q1.21 0.53 2.36-0.74Q3.51-2.01 5.52-2.76L5.52-2.76Q4.48-3.24 3.86-4.05Q3.24-4.86 3.24-6.22L3.24-6.22Q3.24-6.75 3.44-7.32Q3.63-7.89 4.03-8.45Q4.43-9.00 5.01-9.51Q5.59-10.02 6.36-10.41L6.36-10.41Q4.55-11.42 3.52-13.10Q2.49-14.79 2.49-17.04L2.49-17.04Q2.49-18.83 3.18-20.29Q3.87-21.76 5.11-22.78Q6.34-23.81 8.05-24.37Q9.75-24.93 11.79-24.93ZM19.43 1.33L19.43 1.33Q19.43 0.41 18.92-0.15Q18.42-0.70 17.55-1.00Q16.67-1.31 15.54-1.45Q14.40-1.60 13.14-1.66Q11.88-1.72 10.58-1.79Q9.27-1.86 8.08-2.06L8.08-2.06Q6.70-1.40 5.84-0.46Q4.99 0.48 4.99 1.79L4.99 1.79Q4.99 2.61 5.41 3.33Q5.83 4.04 6.70 4.56Q7.57 5.08 8.89 5.38Q10.21 5.69 12.00 5.69L12.00 5.69Q13.75 5.69 15.13 5.37Q16.50 5.06 17.46 4.48Q18.42 3.90 18.92 3.10Q19.43 2.30 19.43 1.33ZM11.79-11.98L11.79-11.98Q13.09-11.98 14.10-12.34Q15.10-12.71 15.78-13.36Q16.46-14.01 16.79-14.92Q17.13-15.83 17.13-16.92L17.13-16.92Q17.13-19.17 15.77-20.50Q14.40-21.83 11.79-21.83L11.79-21.83Q9.20-21.83 7.83-20.50Q6.46-19.17 6.46-16.92L6.46-16.92Q6.46-15.83 6.81-14.92Q7.16-14.01 7.84-13.36Q8.52-12.71 9.51-12.34Q10.50-11.98 11.79-11.98Z" transform="translate(-1.210002688894864, 35.307878461952136)"/></g></g></g> </g><defs v-gra="od"/>
  </svg>
</svg>


